<svg width="25" height="25" viewBox="0 0 25 25" fill="none" xmlns="http://www.w3.org/2000/svg">
<path d="M23.5 4.51592C23.5 6.45752 21.926 8.03149 19.9844 8.03149C18.0428 8.03149 16.4688 6.45752 16.4688 4.51592C16.4688 2.57433 18.0428 1.00035 19.9844 1.00035C21.926 1.00035 23.5 2.57433 23.5 4.51592Z" fill="#FF0000"/>
<path d="M11.5467 1H3.81246C2.25918 1 1 2.25918 1 3.81246V15.0627C1 16.616 2.25919 17.8752 3.81248 17.8752L13.9612 17.8751L19.2813 23.5V17.8752L20.6876 17.8752C22.2409 17.8751 23.5 16.616 23.5 15.0627V12.2505M23.5 4.51592C23.5 6.45752 21.926 8.03149 19.9844 8.03149C18.0428 8.03149 16.4688 6.45752 16.4688 4.51592C16.4688 2.57433 18.0428 1.00035 19.9844 1.00035C21.926 1.00035 23.5 2.57433 23.5 4.51592Z" stroke="black" stroke-width="2" stroke-linecap="round" stroke-linejoin="round"/>
</svg>
