<svg width="24" height="24" viewBox="0 0 24 24" fill="none" xmlns="http://www.w3.org/2000/svg">
<path d="M1.40039 21.5999C1.40033 22.1522 1.84799 22.6 2.40028 22.6C2.95256 22.6001 3.40033 22.1524 3.40039 21.6001L1.40039 21.5999ZM2.4008 17.9996L3.4008 17.9997L2.4008 17.9996ZM13.2004 15.4C13.7527 15.4 14.2004 14.9523 14.2004 14.4C14.2004 13.8477 13.7527 13.4 13.2004 13.4V15.4ZM20.8933 18.1071C21.2838 18.4977 21.917 18.4977 22.3075 18.1071C22.698 17.7166 22.698 17.0834 22.3075 16.6929L20.8933 18.1071ZM18.4891 12.8745C18.0986 12.484 17.4654 12.484 17.0749 12.8745C16.6844 13.2651 16.6844 13.8982 17.0749 14.2888L18.4891 12.8745ZM17.075 16.6928C16.6845 17.0833 16.6845 17.7165 17.075 18.107C17.4655 18.4976 18.0987 18.4976 18.4892 18.107L17.075 16.6928ZM22.3076 14.2887C22.6981 13.8981 22.6981 13.265 22.3076 12.8744C21.9171 12.4839 21.2839 12.4839 20.8934 12.8744L22.3076 14.2887ZM13.4004 6.00002C13.4004 7.43596 12.2363 8.60002 10.8004 8.60002V10.6C13.3409 10.6 15.4004 8.54053 15.4004 6.00002H13.4004ZM10.8004 8.60002C9.36445 8.60002 8.20039 7.43596 8.20039 6.00002H6.20039C6.20039 8.54053 8.25988 10.6 10.8004 10.6V8.60002ZM8.20039 6.00002C8.20039 4.56408 9.36445 3.40002 10.8004 3.40002V1.40002C8.25988 1.40002 6.20039 3.45951 6.20039 6.00002H8.20039ZM10.8004 3.40002C12.2363 3.40002 13.4004 4.56408 13.4004 6.00002H15.4004C15.4004 3.45951 13.3409 1.40002 10.8004 1.40002V3.40002ZM3.40039 21.6001L3.4008 17.9997L1.4008 17.9995L1.40039 21.5999L3.40039 21.6001ZM6.0008 13.4C3.46049 13.4 1.40108 15.4592 1.4008 17.9995L3.4008 17.9997C3.40096 16.5639 4.56497 15.4 6.0008 15.4V13.4ZM6.0008 15.4H13.2004V13.4H6.0008V15.4ZM22.3075 16.6929L20.3983 14.7837L18.9841 16.1979L20.8933 18.1071L22.3075 16.6929ZM20.3983 14.7837L18.4891 12.8745L17.0749 14.2888L18.9841 16.1979L20.3983 14.7837ZM18.4892 18.107L20.3983 16.1979L18.9841 14.7837L17.075 16.6928L18.4892 18.107ZM20.3983 16.1979L22.3076 14.2887L20.8934 12.8744L18.9841 14.7837L20.3983 16.1979Z" fill="white"/>
</svg>
