<svg width="26" height="26" viewBox="0 0 26 26" fill="none" xmlns="http://www.w3.org/2000/svg">
<path d="M22.75 18.875C23.3023 18.875 23.75 18.4273 23.75 17.875C23.75 17.3227 23.3023 16.875 22.75 16.875V18.875ZM16.9 16.875C16.3477 16.875 15.9 17.3227 15.9 17.875C15.9 18.4273 16.3477 18.875 16.9 18.875V16.875ZM18.825 20.7998C18.825 21.3521 19.2727 21.7998 19.825 21.7998C20.3773 21.7998 20.825 21.3521 20.825 20.7998H18.825ZM20.825 14.9498C20.825 14.3975 20.3773 13.9498 19.825 13.9498C19.2727 13.9498 18.825 14.3975 18.825 14.9498H20.825ZM15.0426 22.4557C15.5893 22.3772 15.9689 21.8704 15.8904 21.3237C15.8119 20.7771 15.3051 20.3975 14.7585 20.476L15.0426 22.4557ZM13.9791 15.7357C14.5283 15.7932 15.0203 15.3946 15.0779 14.8454C15.1355 14.2961 14.7369 13.8041 14.1876 13.7466L13.9791 15.7357ZM11.9167 20.6666C9.36587 20.6666 7.3521 20.2549 6.01594 19.6461C4.62484 19.0123 4.25 18.3204 4.25 17.875H2.25C2.25 19.5237 3.56581 20.7276 5.18672 21.4661C6.86255 22.2296 9.18211 22.6666 11.9167 22.6666V20.6666ZM4.25 17.875C4.25 17.938 4.22321 17.7895 4.63258 17.4683C5.00658 17.1748 5.59273 16.8629 6.36049 16.5782C7.88835 16.0116 9.93693 15.625 11.9167 15.625V13.625C9.70824 13.625 7.42349 14.0509 5.66506 14.703C4.78967 15.0276 3.99444 15.4267 3.39783 15.8949C2.8366 16.3354 2.25 16.9995 2.25 17.875H4.25ZM14.1667 7.64291C14.1667 8.7731 13.161 9.83331 11.9167 9.83331V11.8333C14.2622 11.8333 16.1667 9.88105 16.1667 7.64291H14.1667ZM11.9167 9.83331C10.6723 9.83331 9.66667 8.7731 9.66667 7.64291H7.66667C7.66667 9.88105 9.57115 11.8333 11.9167 11.8333V9.83331ZM9.66667 7.64291C9.66667 6.46552 10.7185 5.33331 11.9167 5.33331V3.33331C9.52503 3.33331 7.66667 5.45196 7.66667 7.64291H9.66667ZM11.9167 5.33331C13.1149 5.33331 14.1667 6.46552 14.1667 7.64291H16.1667C16.1667 5.45196 14.3083 3.33331 11.9167 3.33331V5.33331ZM22.75 16.875H19.825V18.875H22.75V16.875ZM19.825 16.875H16.9V18.875H19.825V16.875ZM20.825 20.7998V17.875H18.825V20.7998H20.825ZM20.825 17.875V14.9498H18.825V17.875H20.825ZM14.7585 20.476C13.9026 20.5988 12.9516 20.6666 11.9167 20.6666V22.6666C13.0378 22.6666 14.0843 22.5932 15.0426 22.4557L14.7585 20.476ZM11.9167 15.625C12.5781 15.625 13.2779 15.6621 13.9791 15.7357L14.1876 13.7466C13.4205 13.6661 12.651 13.625 11.9167 13.625V15.625Z" fill="black"/>
</svg>
