<svg width="20" height="21" viewBox="0 0 20 21" fill="none" xmlns="http://www.w3.org/2000/svg">
<g clip-path="url(#clip0_190_715)">
<path fill-rule="evenodd" clip-rule="evenodd" d="M9.99717 0.566408C11.4921 0.565559 12.9679 0.902124 14.3147 1.55102C15.6615 2.19994 16.8445 3.1445 17.7754 4.31425C18.7064 5.48401 19.3613 6.84881 19.6914 8.30691C20.0214 9.76502 20.0181 11.2788 19.6817 12.7355C19.3453 14.1921 18.6844 15.5541 17.7484 16.7198C16.8124 17.8855 15.6253 18.8248 14.2756 19.4679C12.926 20.1109 11.4486 20.4411 9.95364 20.4336C8.53806 20.4266 7.14126 20.1172 5.85651 19.5271L0.905113 20.4223C0.652135 20.4681 0.394089 20.3743 0.229443 20.1769C0.0647962 19.9795 0.0189505 19.7088 0.109399 19.4682L1.52973 15.6893C0.657802 14.266 0.157486 12.6441 0.0778575 10.9729C-0.00766097 9.17802 0.395252 7.39361 1.24368 5.80967C2.09211 4.22573 3.35428 2.90157 4.89577 1.97824C6.43718 1.05494 8.20039 0.567007 9.99717 0.566408ZM9.45601 6.85C9.71579 6.7424 10.0016 6.71424 10.2774 6.7691C10.5532 6.82395 10.8065 6.95935 11.0053 7.15817C11.2042 7.357 11.3396 7.61031 11.3944 7.8861C11.4493 8.16187 11.4211 8.44772 11.3135 8.7075C11.2059 8.96727 11.0237 9.18931 10.7899 9.34552C10.5561 9.50174 10.2812 9.58512 10.0001 9.58512C9.50694 9.58512 9.1072 9.98487 9.1072 10.478V12.021C9.1072 12.5141 9.50694 12.9139 10.0001 12.9139C10.4932 12.9139 10.8929 12.5141 10.8929 12.021V11.2441C11.207 11.153 11.5071 11.014 11.782 10.8303C12.3094 10.4779 12.7205 9.97694 12.9633 9.39087C13.2061 8.80478 13.2696 8.1599 13.1458 7.53771C13.0221 6.91554 12.7166 6.34404 12.268 5.89548C11.8195 5.44692 11.248 5.14145 10.6258 5.01768C10.0036 4.89392 9.35871 4.95745 8.77264 5.20021C8.18657 5.44297 7.68564 5.85407 7.33321 6.38153C6.98079 6.90897 6.79267 7.52908 6.79267 8.16345C6.79267 8.65655 7.19241 9.05631 7.68553 9.05631C8.17864 9.05631 8.57838 8.65655 8.57838 8.16345C8.57838 7.88227 8.66177 7.6074 8.81799 7.37361C8.9742 7.13981 9.19623 6.9576 9.45601 6.85ZM10.0001 16.7713C9.29529 16.7698 8.7244 16.1979 8.7244 15.4928C8.7244 14.7866 9.29686 14.2142 10.003 14.2142H10.0059C10.7107 14.2158 11.2816 14.7876 11.2816 15.4928C11.2816 16.1989 10.7091 16.7713 10.003 16.7713H10.0001Z" fill="black"/>
</g>
<defs>
<clipPath id="clip0_190_715">
<rect width="20" height="20" fill="white" transform="translate(0 0.5)"/>
</clipPath>
</defs>
</svg>
