<svg width="24" height="24" viewBox="0 0 24 24" fill="none" xmlns="http://www.w3.org/2000/svg">
<path d="M18.41 18.09L15.59 20.91M18.41 20.91L15.59 18.09M12 21.81C10.18 21.81 8.37005 21.35 6.99005 20.43C4.57005 18.81 4.57005 16.17 6.99005 14.56C9.74005 12.72 14.25 12.72 17 14.56M12.16 10.87C12.06 10.86 11.94 10.86 11.83 10.87C9.45005 10.79 7.56005 8.84 7.56005 6.44C7.56005 3.99 9.54005 2 12 2C14.45 2 16.4401 3.99 16.4401 6.44C16.4301 8.84 14.54 10.79 12.16 10.87Z" stroke="#292D32" stroke-width="1.5" stroke-linecap="round" stroke-linejoin="round"/>
</svg>
