<svg width="32" height="32" viewBox="0 0 32 32" fill="none" xmlns="http://www.w3.org/2000/svg">
<path fill-rule="evenodd" clip-rule="evenodd" d="M12 7C12 6.44772 12.4477 6 13 6L29 6C29.5523 6 30 6.44772 30 7V25C30 25.5523 29.5523 26 29 26H13C12.4477 26 12 25.5523 12 25V21C12 20.4477 11.5523 20 11 20C10.4477 20 10 20.4477 10 21V25C10 26.6569 11.3431 28 13 28H29C30.6569 28 32 26.6569 32 25V7C32 5.34314 30.6569 4 29 4L13 4C11.3431 4 10 5.34315 10 7V11C10 11.5523 10.4477 12 11 12C11.5523 12 12 11.5523 12 11V7Z" fill="black"/>
<path fill-rule="evenodd" clip-rule="evenodd" d="M23.7071 16.7071C24.0976 16.3166 24.0976 15.6834 23.7071 15.2929L17.7071 9.29289C17.3166 8.90237 16.6834 8.90237 16.2929 9.29289C15.9024 9.68342 15.9024 10.3166 16.2929 10.7071L20.5858 15L3 15C2.44772 15 2 15.4477 2 16C2 16.5523 2.44772 17 3 17H20.5858L16.2929 21.2929C15.9024 21.6834 15.9024 22.3166 16.2929 22.7071C16.6834 23.0976 17.3166 23.0976 17.7071 22.7071L23.7071 16.7071Z" fill="black"/>
</svg>
