<svg width="28" height="28" viewBox="0 0 28 28" fill="none" xmlns="http://www.w3.org/2000/svg">
<path d="M19.25 10.5C19.25 13.3995 16.8995 15.75 14 15.75C11.1005 15.75 8.75 13.3995 8.75 10.5C8.75 7.60051 11.1005 5.25 14 5.25C16.8995 5.25 19.25 7.60051 19.25 10.5Z" fill="black"/>
<path fill-rule="evenodd" clip-rule="evenodd" d="M0 14C0 6.26801 6.26801 0 14 0C21.732 0 28 6.26801 28 14C28 21.732 21.732 28 14 28C6.26801 28 0 21.732 0 14ZM14 1.75C7.23451 1.75 1.75 7.23451 1.75 14C1.75 16.8935 2.7532 19.5527 4.43076 21.6487C5.67513 19.6442 8.40812 17.5 14 17.5C19.5919 17.5 22.3249 19.6442 23.5693 21.6487C25.2468 19.5527 26.25 16.8935 26.25 14C26.25 7.23451 20.7655 1.75 14 1.75Z" fill="black"/>
</svg>
